<?xml version="1.0" encoding="UTF-8"?>
<svg id="Capa_2" xmlns="http://www.w3.org/2000/svg" version="1.1" viewBox="0 0 475 475">
  <!-- Generator: Adobe Illustrator 30.0.0, SVG Export Plug-In . SVG Version: 2.1.1 Build 123)  -->
  <defs>
    <style>
      .st0 {
        fill: #3babfa;
      }

      .st1 {
        fill: #fff;
        stroke: #fff;
        stroke-miterlimit: 10;
      }

      .st2 {
        fill: #052456;
      }
    </style>
  </defs>
  <rect class="st1" y="0" width="475" height="475" rx="101.5" ry="101.5"/>
  <g id="Capa_1-2">
    <g>
      <g>
        <path class="st2" d="M85.1,325.7c1.1,0,1.9-.9,1.9-1.9v-10.3c0-1.1-.9-1.9-1.9-1.9s-1.9.9-1.9,1.9v10.3c0,1.1.9,1.9,1.9,1.9Z"/>
        <path class="st2" d="M85.1,290.8c-1.1,0-1.9.9-1.9,1.9v4.1c0,1.1.9,1.9,1.9,1.9s1.9-.9,1.9-1.9v-4.1c0-1.1-.9-1.9-1.9-1.9Z"/>
        <path class="st2" d="M24.4,271.6v81.9h100.8v-81.9H24.4ZM95.3,338.2c0,3.3-2.7,6.1-6.1,6.1h0v2.2c0,1.1-.9,1.9-1.9,1.9s-1.9-.9-1.9-1.9v-2.2h-20.9v2.2c0,1.1-.9,1.9-1.9,1.9s-1.9-.9-1.9-1.9v-2.2h0c-3.3,0-6.1-2.7-6.1-6.1v-31.1h41.1v31.1h-.2ZM95.3,303.2h-41v-14.6c0-3.3,2.7-6.1,6.1-6.1h28.9c3.3,0,6.1,2.7,6.1,6.1v14.6h0Z"/>
      </g>
      <g>
        <path class="st0" d="M171.5,288.5h-3.9c-2.4,0-2.4,3.7,0,3.7h3.9c2.4,0,2.4-3.7,0-3.7Z"/>
        <path class="st0" d="M183.4,333.9c7.7,0,13.9-6.2,13.9-13.9s-6.2-13.9-13.9-13.9-13.9,6.2-13.9,13.9,6.2,13.9,13.9,13.9ZM173.9,315.4c10.6.4,7.9,8.4,20,6.2-.7,5.2-5.1,9.3-10.5,9.3-7.8.2-13.2-8.7-9.5-15.5h0Z"/>
        <path class="st0" d="M181.4,288.5h-3.9c-2.4,0-2.4,3.7,0,3.6h3.9c2.4,0,2.4-3.7,0-3.6Z"/>
        <path class="st0" d="M132.9,271.6v81.9h100.8v-81.9h-100.8ZM208.9,334.7c0,5.4-4.4,9.7-9.7,9.7h-31.5c-5.4,0-9.7-4.4-9.7-9.7v-34.6h51v34.6h-.1ZM207,298.1h-47.3c-1,0-1.8-.8-1.8-1.8-.9-6.5,2.4-13.7,9.7-13.7h31.5c5.4,0,9.7,4.4,9.7,9.7-.2,1.6.9,5.9-1.8,5.8h0Z"/>
      </g>
      <g>
        <path class="st0" d="M431.9,307.1c-2.5,0-4.5,2-4.5,4.4s2,4.4,4.5,4.4,4.5-2,4.5-4.4-2-4.4-4.5-4.4ZM431.9,313.5c-1.1,0-1.9-.9-1.9-1.9s.9-1.9,1.9-1.9,1.9.9,1.9,1.9-.9,1.9-1.9,1.9Z"/>
        <path class="st0" d="M349.9,271.6v81.9h100.8v-81.9h-100.8ZM433.4,329h-66.2v-1.7c0-1.9,1.5-3.4,3.4-3.4h59.4c1.9,0,3.4,1.5,3.4,3.4v1.7h0ZM443,324.1c0,2.7-2.2,4.9-4.9,4.9h-2.3v-1.7c0-3.2-2.6-5.9-5.9-5.9h-59.4c-3.2,0-5.9,2.6-5.9,5.9v1.7h-2.3c-2.7,0-4.9-2.2-4.9-4.9v-19c0-2.7,2.2-4.9,4.9-4.9h75.7c2.7,0,4.9,2.2,4.9,4.9v19h0Z"/>
      </g>
      <g>
        <path class="st2" d="M241.4,271.6v81.9h100.8v-81.9h-100.8,0ZM268.4,292.3h15l-2,4.1h-13v-4.1h0ZM280,344.4h-7.7l-.5-5.2h8.8l-.5,5.2h-.1ZM310.8,344.4h-7.7l-.5-5.2h8.8l-.5,5.2h0ZM314.6,335.6h-46.3v-35.6h15.2l3.9-7.7h27.2v43.3h0ZM268.4,288.6c0-3.3,2.6-5.9,5.9-5.9h34.5c3.3,0,5.9,2.6,5.9,5.9h-46.3,0Z"/>
        <path class="st2" d="M289.6,313.2v2.5h-2.5c-.8-2.2-2.9-3.9-5.4-3.9v3.6c1.1,0,2,.9,2,2.1s-.9,2.1-2,2.1v3.6c2.5,0,4.6-1.6,5.4-3.9h2.5v2.5c-2.2.8-3.9,2.9-3.9,5.4h3.6c0-1.1.9-2.1,2-2.1s2,.9,2,2.1h3.6c0-2.5-1.6-4.6-3.9-5.4v-2.5h2.5c.8,2.2,2.9,3.9,5.4,3.9v-3.6c-1.1,0-2-.9-2-2.1s.9-2.1,2-2.1v-3.6c-2.5,0-4.6,1.6-5.4,3.9h-2.5v-2.5c2.2-.8,3.9-2.9,3.9-5.4h-3.6c0,1.1-.9,2.1-2,2.1s-2-.9-2-2.1h-3.6c0,2.5,1.6,4.6,3.9,5.4Z"/>
      </g>
      <path class="st2" d="M237.6,121.5l-102.8,102.8v35.5c0,.6,26.9,0,26.9,0v-24.8l75.9-75.9,75.9,75.9v24.8s26.9.6,26.9,0v-35.5l-102.8-102.8Z"/>
      <polygon class="st2" points="139.2 208 158 189.2 126.8 158 126.8 157.7 126.7 157.8 126.5 157.7 126.5 158 24.4 260.1 62 260.1 126.7 195.5 139.2 208"/>
      <polygon class="st2" points="335.9 208 317.1 189.2 348.2 158 348.2 157.7 348.5 157.8 348.6 157.7 348.6 158 450.6 260.1 413.1 260.1 348.5 195.5 335.9 208"/>
      <rect class="st2" x="218.1" y="210.7" width="17" height="17"/>
      <rect class="st2" x="240.1" y="210.7" width="17" height="17"/>
      <rect class="st2" x="218.1" y="232.1" width="17" height="17"/>
      <rect class="st2" x="240.1" y="232.1" width="17" height="17"/>
      <polygon class="st0" points="169.7 236.9 237.6 169 305.2 236.8 237.1 180.3 169.7 236.9"/>
      <polygon class="st0" points="130.4 216.6 136.1 211 128.1 203 70.9 260.1 127.6 214.3 130.4 216.6"/>
      <polygon class="st0" points="346.1 216.6 340.4 211 348.4 203 405.6 260.1 348.9 214.3 346.1 216.6"/>
    </g>
  </g>
</svg>