<?xml version="1.0" encoding="UTF-8"?>
<svg id="Capa_2" data-name="Capa 2" xmlns="http://www.w3.org/2000/svg" viewBox="0 0 666.44 400.28">
  <defs>
    <style>
      .cls-1 {
        fill: #fff;
        stroke-width: 0px;
      }
    </style>
  </defs>
  <g id="Capa_1-2" data-name="Capa 1">
    <g>
      <g>
        <g>
          <path class="cls-1" d="M0,351.07l9.97-81.75h20.06l-7.7,63.21h24.5l-2.28,18.54H0Z"/>
          <path class="cls-1" d="M59.52,296.65h19.51l-6.61,54.43h-19.51l6.61-54.43ZM71.88,265.32c3.25,0,5.98.96,8.19,2.87,2.2,1.92,3.31,4.43,3.31,7.54,0,3.4-1.14,6-3.42,7.81-2.28,1.81-4.93,2.71-7.97,2.71s-5.8-.9-8.08-2.71c-2.28-1.81-3.42-4.41-3.42-7.81,0-1.52.29-2.91.87-4.17.58-1.26,1.39-2.37,2.44-3.31,1.05-.94,2.26-1.66,3.63-2.17,1.37-.5,2.85-.76,4.45-.76Z"/>
          <path class="cls-1" d="M92.26,296.65h19.3l-1.3,7.26h.22c2.46-2.67,5.02-4.79,7.7-6.34,2.67-1.55,6.03-2.33,10.08-2.33,6.07,0,10.53,2.08,13.39,6.23,2.85,4.16,3.81,10.1,2.87,17.83l-4.01,31.77h-19.52l3.58-29.27c.36-3.25.11-5.76-.76-7.54-.87-1.77-2.57-2.66-5.1-2.66-2.75,0-5.01.96-6.78,2.87-1.77,1.92-2.91,4.82-3.42,8.73l-3.36,27.86h-19.51l6.61-54.43Z"/>
          <path class="cls-1" d="M153.62,323.1c.29-4.26,1.28-8.09,2.98-11.49,1.7-3.4,3.9-6.32,6.61-8.78,2.71-2.46,5.89-4.34,9.54-5.64,3.65-1.3,7.57-1.95,11.76-1.95s8.22.67,11.66,2.01c3.43,1.34,6.34,3.29,8.73,5.85,2.39,2.57,4.19,5.69,5.42,9.38,1.23,3.69,1.73,7.91,1.52,12.68-.07.36-.11.76-.11,1.19s-.07.91-.22,1.41l-38.71-.22c0,3.69.9,6.61,2.71,8.78,1.81,2.17,4.23,3.25,7.26,3.25,4.05,0,7.33-2.31,9.87-6.94l17.56,3.36c-2.6,5.64-6.36,9.79-11.28,12.47-4.92,2.67-10.55,4.01-16.91,4.01-4.27,0-8.22-.65-11.87-1.95-3.65-1.3-6.76-3.2-9.32-5.69-2.57-2.49-4.5-5.56-5.8-9.21-1.3-3.65-1.77-7.82-1.41-12.52ZM174.12,316.82l18.87-.22c-.15-2.6-.96-4.66-2.44-6.18-1.48-1.52-3.56-2.28-6.23-2.28s-4.9.81-6.67,2.44c-1.77,1.63-2.95,3.71-3.52,6.23Z"/>
          <path class="cls-1" d="M219.43,322.89c.43-3.9,1.39-7.54,2.87-10.9,1.48-3.36,3.47-6.27,5.96-8.73,2.49-2.46,5.4-4.39,8.73-5.8,3.32-1.41,7.05-2.11,11.17-2.11,3.76,0,7.05.78,9.87,2.33,2.82,1.55,4.95,3.42,6.4,5.58h.22l.65-6.61h19.19l-6.72,54.43h-19.19l1.08-6.61h-.22c-1.88,2.31-4.25,4.23-7.1,5.75-2.86,1.52-6.31,2.28-10.35,2.28-3.76,0-7.14-.74-10.14-2.22-3-1.48-5.49-3.52-7.48-6.12-1.99-2.6-3.42-5.71-4.28-9.32-.87-3.61-1.08-7.59-.65-11.93ZM249.14,336.55c3.9,0,7.03-1.12,9.38-3.36,2.35-2.24,3.7-5.31,4.07-9.22.36-3.69-.43-6.72-2.39-9.11-1.95-2.38-4.73-3.58-8.35-3.58s-6.78,1.19-9.05,3.58c-2.28,2.39-3.6,5.39-3.96,9-.36,3.83.4,6.9,2.28,9.22,1.88,2.31,4.55,3.47,8.02,3.47Z"/>
        </g>
        <g>
          <path class="cls-1" d="M304.43,351.07l9.97-81.75h21.79c4.48,0,8.56.47,12.25,1.41,3.69.94,6.81,2.39,9.38,4.34,2.56,1.95,4.45,4.41,5.64,7.37,1.19,2.96,1.54,6.47,1.03,10.52-.36,3.54-1.52,6.67-3.47,9.38-1.95,2.71-4.37,4.72-7.26,6.02v.11c4.7,1.66,8.17,4.34,10.41,8.02,2.24,3.69,3.07,7.91,2.49,12.68-.51,4.19-1.77,7.7-3.79,10.52-2.02,2.82-4.55,5.06-7.59,6.72-3.04,1.66-6.4,2.86-10.08,3.58-3.69.72-7.41,1.08-11.17,1.08h-29.6ZM332.51,335.68c4.41,0,7.91-.74,10.52-2.22,2.6-1.48,4.08-3.74,4.45-6.78.36-3.32-.58-5.89-2.82-7.7-2.24-1.81-5.78-2.71-10.62-2.71h-5.85l-2.28,19.41h6.61ZM329.8,302.72h4.12c3.25,0,5.87-.71,7.86-2.11,1.99-1.41,3.16-3.63,3.52-6.67.36-3.04-.33-5.35-2.06-6.94-1.73-1.59-4.37-2.38-7.92-2.38h-3.25l-2.28,18.11Z"/>
          <path class="cls-1" d="M375.01,351.07l10.84-88.47h19.51l-10.84,88.47h-19.51Z"/>
          <path class="cls-1" d="M408.19,322.89c.43-3.9,1.39-7.54,2.87-10.9,1.48-3.36,3.47-6.27,5.96-8.73,2.49-2.46,5.4-4.39,8.73-5.8,3.32-1.41,7.05-2.11,11.17-2.11,3.76,0,7.05.78,9.87,2.33,2.82,1.55,4.95,3.42,6.4,5.58h.22l.65-6.61h19.19l-6.72,54.43h-19.19l1.08-6.61h-.22c-1.88,2.31-4.25,4.23-7.1,5.75-2.86,1.52-6.31,2.28-10.35,2.28-3.76,0-7.14-.74-10.14-2.22-3-1.48-5.49-3.52-7.48-6.12-1.99-2.6-3.42-5.71-4.28-9.32-.87-3.61-1.08-7.59-.65-11.93ZM437.89,336.55c3.9,0,7.03-1.12,9.38-3.36,2.35-2.24,3.7-5.31,4.07-9.22.36-3.69-.43-6.72-2.39-9.11-1.95-2.38-4.73-3.58-8.35-3.58s-6.78,1.19-9.05,3.58c-2.28,2.39-3.6,5.39-3.96,9-.36,3.83.4,6.9,2.28,9.22,1.88,2.31,4.55,3.47,8.02,3.47Z"/>
          <path class="cls-1" d="M486.25,296.65h19.3l-1.3,7.26h.22c2.46-2.67,5.02-4.79,7.7-6.34,2.67-1.55,6.03-2.33,10.08-2.33,6.07,0,10.53,2.08,13.39,6.23,2.85,4.16,3.81,10.1,2.87,17.83l-4.01,31.77h-19.52l3.58-29.27c.36-3.25.11-5.76-.76-7.54-.87-1.77-2.57-2.66-5.1-2.66-2.75,0-5.01.96-6.78,2.87-1.77,1.92-2.91,4.82-3.42,8.73l-3.36,27.86h-19.51l6.61-54.43Z"/>
          <path class="cls-1" d="M547.61,322.89c.29-4.05,1.25-7.77,2.87-11.17,1.63-3.4,3.76-6.31,6.4-8.73,2.64-2.42,5.76-4.32,9.38-5.69,3.61-1.37,7.59-2.06,11.93-2.06,3.11,0,6.09.38,8.94,1.14,2.85.76,5.22,1.65,7.1,2.66l-1.19,17.24c-1.73-1.59-3.62-2.85-5.64-3.79-2.02-.94-4.19-1.41-6.5-1.41-3.9,0-7.08,1.21-9.54,3.63-2.46,2.42-3.83,5.47-4.12,9.16-.29,3.62.54,6.63,2.49,9.05,1.95,2.42,4.91,3.63,8.89,3.63,2.53,0,4.81-.45,6.83-1.35,2.02-.9,4.08-2.19,6.18-3.85l-1.74,18.21c-1.81.94-3.92,1.66-6.34,2.17-2.42.5-4.9.76-7.43.76-4.55,0-8.66-.7-12.31-2.11-3.65-1.41-6.74-3.4-9.27-5.96-2.53-2.56-4.41-5.67-5.64-9.32-1.23-3.65-1.66-7.71-1.3-12.2Z"/>
          <path class="cls-1" d="M601.38,322.89c.43-3.9,1.39-7.54,2.87-10.9,1.48-3.36,3.47-6.27,5.96-8.73,2.49-2.46,5.4-4.39,8.73-5.8,3.32-1.41,7.05-2.11,11.17-2.11,3.76,0,7.05.78,9.87,2.33,2.82,1.55,4.95,3.42,6.4,5.58h.22l.65-6.61h19.19l-6.72,54.43h-19.19l1.08-6.61h-.22c-1.88,2.31-4.25,4.23-7.1,5.75-2.86,1.52-6.31,2.28-10.35,2.28-3.76,0-7.14-.74-10.14-2.22-3-1.48-5.49-3.52-7.48-6.12-1.99-2.6-3.42-5.71-4.28-9.32-.87-3.61-1.08-7.59-.65-11.93ZM631.09,336.55c3.9,0,7.03-1.12,9.38-3.36,2.35-2.24,3.7-5.31,4.07-9.22.36-3.69-.43-6.72-2.39-9.11-1.95-2.38-4.73-3.58-8.35-3.58s-6.78,1.19-9.05,3.58c-2.28,2.39-3.6,5.39-3.96,9-.36,3.83.4,6.9,2.28,9.22,1.88,2.31,4.55,3.47,8.02,3.47Z"/>
        </g>
      </g>
      <g>
        <g>
          <path class="cls-1" d="M180.25,204.18c1.07,0,1.93-.86,1.93-1.93v-10.33c0-1.07-.86-1.93-1.93-1.93s-1.93.86-1.93,1.93v10.33c0,1.07.86,1.93,1.93,1.93Z"/>
          <path class="cls-1" d="M180.25,169.32c-1.07,0-1.93.86-1.93,1.93v4.13c0,1.07.86,1.93,1.93,1.93s1.93-.86,1.93-1.93v-4.13c0-1.07-.86-1.93-1.93-1.93Z"/>
          <path class="cls-1" d="M119.51,150.12v81.93h100.8v-81.93h-100.8ZM190.44,216.72c0,3.34-2.72,6.06-6.06,6.06h-.14v2.2c0,1.07-.86,1.93-1.93,1.93s-1.93-.86-1.93-1.93v-2.2h-20.94v2.2c0,1.07-.86,1.93-1.93,1.93s-1.93-.86-1.93-1.93v-2.2h-.14c-3.34,0-6.06-2.72-6.06-6.06v-31.14h41.06v31.14ZM190.44,181.72h-41.06v-14.6c0-3.34,2.72-6.06,6.06-6.06h28.93c3.34,0,6.06,2.72,6.06,6.06v14.6Z"/>
        </g>
        <g>
          <path class="cls-1" d="M266.65,166.99h-3.94c-2.36-.01-2.36,3.69,0,3.68h3.94c2.36.01,2.36-3.69,0-3.68Z"/>
          <path class="cls-1" d="M278.48,212.35c7.69,0,13.94-6.24,13.94-13.94s-6.24-13.94-13.94-13.94-13.94,6.24-13.94,13.94,6.24,13.94,13.94,13.94ZM269.02,193.91c10.65.45,7.93,8.39,19.99,6.2-.67,5.23-5.13,9.29-10.54,9.29-7.77.21-13.16-8.7-9.45-15.49Z"/>
          <path class="cls-1" d="M276.51,167.01h-3.94c-2.36-.03-2.36,3.69,0,3.65h3.94c2.36.01,2.36-3.69,0-3.65Z"/>
          <path class="cls-1" d="M228.02,150.12v81.93h100.8v-81.93h-100.8ZM303.98,213.19c0,5.36-4.36,9.73-9.73,9.73h-31.55c-5.36,0-9.73-4.36-9.73-9.73v-34.64h51v34.64ZM302.15,176.58h-47.33c-1.03,0-1.84-.83-1.84-1.84-.93-6.49,2.35-13.74,9.73-13.67h31.55c5.36,0,9.73,4.36,9.73,9.73-.23,1.56.86,5.86-1.84,5.78Z"/>
        </g>
        <g>
          <path class="cls-1" d="M527.02,185.61c-2.45,0-4.45,1.99-4.45,4.45s1.99,4.45,4.45,4.45,4.45-1.99,4.45-4.45-1.99-4.45-4.45-4.45ZM527.02,192c-1.07,0-1.94-.87-1.94-1.94s.87-1.94,1.94-1.94,1.94.87,1.94,1.94-.87,1.94-1.94,1.94Z"/>
          <path class="cls-1" d="M445.04,150.12v81.93h100.8v-81.93h-100.8ZM528.52,207.48h-66.16v-1.7c0-1.86,1.51-3.37,3.37-3.37h59.42c1.86,0,3.37,1.51,3.37,3.37v1.7ZM538.16,202.62c0,2.68-2.18,4.86-4.86,4.86h-2.27v-1.7c0-3.24-2.64-5.88-5.88-5.88h-59.42c-3.24,0-5.88,2.64-5.88,5.88v1.7h-2.27c-2.68,0-4.86-2.18-4.86-4.86v-18.98c0-2.68,2.18-4.86,4.86-4.86h75.72c2.68,0,4.86,2.18,4.86,4.86v18.98Z"/>
        </g>
        <g>
          <path class="cls-1" d="M336.53,150.12v81.93h100.8v-81.93h-100.8ZM363.53,170.75h15.01l-2.05,4.1h-12.96v-4.1ZM375.1,222.92h-7.71l-.52-5.21h8.75l-.52,5.21ZM405.94,222.92h-7.71l-.52-5.21h8.75l-.52,5.21ZM409.8,214.09h-46.26v-35.63h15.2l3.86-7.71h27.21v43.34ZM363.53,167.14c0-3.26,2.64-5.9,5.9-5.9h34.46c3.26,0,5.9,2.64,5.9,5.9h-46.26Z"/>
          <path class="cls-1" d="M384.86,191.66v2.47h-2.47c-.76-2.24-2.87-3.86-5.36-3.86v3.61c1.13,0,2.05.92,2.05,2.05s-.92,2.05-2.05,2.05v3.61c2.49,0,4.61-1.62,5.36-3.86h2.47v2.47c-2.24.76-3.86,2.87-3.86,5.36h3.61c0-1.13.92-2.05,2.05-2.05s2.05.92,2.05,2.05h3.61c0-2.49-1.62-4.61-3.86-5.36v-2.47h2.47c.76,2.24,2.87,3.86,5.36,3.86v-3.61c-1.13,0-2.05-.92-2.05-2.05s.92-2.05,2.05-2.05v-3.61c-2.49,0-4.61,1.62-5.36,3.86h-2.47v-2.47c2.24-.76,3.86-2.87,3.86-5.36h-3.61c0,1.13-.92,2.05-2.05,2.05s-2.05-.92-2.05-2.05h-3.61c0,2.49,1.62,4.61,3.86,5.36Z"/>
        </g>
        <path class="cls-1" d="M332.68,0l-102.83,102.83v35.51c0,.6,26.93,0,26.93,0v-24.83l75.9-75.9,75.9,75.9v24.83s26.93.6,26.93,0v-35.51L332.68,0Z"/>
        <polygon class="cls-1" points="234.29 86.47 253.09 67.67 221.92 36.5 221.92 36.19 221.77 36.34 221.62 36.19 221.62 36.5 119.51 138.6 157.13 138.6 221.77 73.96 234.29 86.47"/>
        <polygon class="cls-1" points="431.06 86.47 412.26 67.67 443.43 36.5 443.43 36.19 443.58 36.34 443.73 36.19 443.73 36.5 545.84 138.6 508.23 138.6 443.58 73.96 431.06 86.47"/>
        <rect class="cls-1" x="313.18" y="89.16" width="16.99" height="16.99"/>
        <rect class="cls-1" x="335.17" y="89.16" width="16.99" height="16.99"/>
        <rect class="cls-1" x="313.18" y="110.63" width="16.99" height="16.99"/>
        <rect class="cls-1" x="335.17" y="110.63" width="16.99" height="16.99"/>
        <polygon class="cls-1" points="264.81 115.38 332.68 47.55 400.42 115.26 332.17 58.85 264.81 115.38"/>
        <polygon class="cls-1" points="225.56 95.13 231.23 89.48 223.22 81.47 166.05 138.6 222.71 92.77 225.56 95.13"/>
        <polygon class="cls-1" points="441.17 95.13 435.5 89.48 443.52 81.47 500.69 138.6 444.03 92.77 441.17 95.13"/>
      </g>
      <g>
        <path class="cls-1" d="M83.82,400.28c-2.74,0-5.13-.57-7.16-1.72-2.03-1.14-3.6-2.77-4.71-4.87-1.11-2.1-1.66-4.59-1.66-7.46v-.95c0-2.74.53-5.17,1.6-7.29,1.07-2.12,2.59-3.77,4.57-4.98,1.98-1.2,4.33-1.8,7.06-1.8,1.91,0,3.71.27,5.38.81,1.67.54,3.17,1.37,4.49,2.48v6.83h-4.21l-.58-4.29c-.43-.31-.89-.58-1.4-.79-.5-.22-1.05-.39-1.64-.5s-1.23-.17-1.91-.17c-1.6,0-2.98.39-4.13,1.18s-2.03,1.91-2.65,3.35c-.61,1.44-.92,3.15-.92,5.13v.99c0,1.98.32,3.69.97,5.14.65,1.45,1.57,2.57,2.75,3.37,1.19.79,2.6,1.19,4.23,1.19.81,0,1.63-.09,2.45-.28s1.57-.43,2.24-.73l.58-3.98h4.21v6.75c-1.1.72-2.47,1.34-4.11,1.83-1.64.5-3.47.75-5.47.75Z"/>
        <path class="cls-1" d="M106.19,400.28c-2,0-3.76-.44-5.26-1.33-1.5-.89-2.66-2.1-3.48-3.66-.82-1.55-1.23-3.32-1.23-5.32v-.78c0-2.08.39-3.93,1.16-5.54.78-1.61,1.87-2.88,3.29-3.8s3.09-1.38,5.02-1.37c1.9,0,3.5.38,4.79,1.13,1.29.75,2.28,1.83,2.95,3.24s1.01,3.12,1.01,5.12v3.08h-12.34l-.04.12c.08.92.31,1.74.69,2.45.38.72.92,1.28,1.62,1.69s1.54.61,2.54.61,2-.13,2.9-.4c.9-.26,1.78-.66,2.63-1.17l1.53,3.49c-.87.7-1.96,1.28-3.27,1.74-1.31.46-2.82.69-4.51.69ZM102.13,387.32h7v-.5c0-.85-.11-1.59-.34-2.2-.23-.61-.59-1.09-1.09-1.43-.5-.34-1.14-.5-1.93-.5s-1.38.2-1.9.59-.92.93-1.21,1.62-.49,1.46-.59,2.33l.06.1Z"/>
        <path class="cls-1" d="M116.84,399.88v-3.4l2.72-.58v-13.02l-3.01-.58v-3.42h8.29l.25,3.01c.7-1.07,1.56-1.91,2.59-2.5,1.03-.59,2.2-.89,3.52-.89,2.08,0,3.71.67,4.89,2s1.77,3.42,1.77,6.27v9.14l2.72.58v3.4h-10.83v-3.4l2.43-.58v-9.12c0-1.41-.28-2.41-.83-3-.56-.59-1.38-.88-2.48-.88-.81,0-1.52.17-2.12.51s-1.1.83-1.5,1.46v11.02l2.29.58v3.4h-10.67Z"/>
        <path class="cls-1" d="M149.98,400.28c-1.95,0-3.46-.54-4.51-1.61-1.05-1.07-1.58-2.77-1.58-5.1v-10.71h-2.89v-3.98h2.89v-5.14h5.65v5.14h3.86v3.98h-3.86v10.69c0,.81.17,1.4.51,1.75.34.35.81.52,1.41.52.31,0,.65-.02,1.01-.07.36-.04.67-.09.93-.15l.49,4.09c-.58.17-1.21.31-1.89.42-.68.11-1.35.17-2.01.17Z"/>
        <path class="cls-1" d="M156.42,399.88v-3.4l2.72-.58v-13.02l-3.01-.58v-3.42h8.28l.21,2.6.04.47c.52-1.14,1.16-2,1.92-2.58.76-.58,1.67-.87,2.74-.87.34,0,.71.03,1.11.09.4.06.76.13,1.07.22l-.6,5.22-2.81-.16c-.8-.04-1.45.1-1.95.41-.5.31-.94.76-1.33,1.34v10.28l2.72.58v3.4h-11.1Z"/>
        <path class="cls-1" d="M182.81,400.28c-2.07,0-3.85-.45-5.34-1.36-1.49-.91-2.63-2.16-3.42-3.77s-1.18-3.46-1.18-5.56v-.41c0-2.08.39-3.93,1.18-5.54s1.92-2.87,3.41-3.78c1.48-.91,3.25-1.37,5.31-1.37s3.86.46,5.34,1.37,2.61,2.17,3.4,3.77c.79,1.6,1.18,3.45,1.18,5.55v.41c0,2.1-.39,3.95-1.18,5.56-.79,1.61-1.92,2.87-3.4,3.77-1.47.91-3.24,1.36-5.3,1.36ZM182.81,395.94c.98,0,1.78-.27,2.41-.8s1.08-1.27,1.38-2.22c.3-.95.45-2.06.45-3.33v-.41c0-1.24-.15-2.34-.45-3.29-.3-.95-.76-1.69-1.39-2.23-.63-.54-1.44-.8-2.43-.8s-1.77.27-2.41.8c-.63.54-1.1,1.28-1.39,2.23-.29.95-.44,2.05-.44,3.29v.41c0,1.27.15,2.38.44,3.34.29.96.75,1.7,1.39,2.22.63.52,1.45.79,2.45.79Z"/>
        <path class="cls-1" d="M213.02,400.28c-1.67,0-3.1-.43-4.3-1.29s-2.11-2.06-2.75-3.61c-.63-1.55-.95-3.35-.95-5.42v-.41c0-2.21.32-4.15.96-5.8.64-1.66,1.55-2.95,2.75-3.87,1.19-.92,2.61-1.39,4.27-1.39,1.15,0,2.16.23,3.03.69.87.46,1.62,1.11,2.25,1.95v-7.53l-3.03-.58v-3.42h8.69v26.29l2.72.58v3.4h-7.62l-.43-2.56c-.66.97-1.45,1.71-2.36,2.21-.91.5-1.99.76-3.23.76ZM214.7,395.88c.79,0,1.48-.17,2.08-.5.59-.34,1.09-.82,1.49-1.46v-8.91c-.39-.67-.88-1.19-1.47-1.56-.59-.37-1.28-.55-2.06-.55-.94,0-1.72.28-2.32.84s-1.04,1.34-1.32,2.34c-.28,1-.42,2.15-.42,3.47v.41c0,1.84.31,3.28.93,4.34.62,1.05,1.65,1.58,3.08,1.58Z"/>
        <path class="cls-1" d="M238.51,400.28c-2,0-3.76-.44-5.26-1.33-1.5-.89-2.66-2.1-3.48-3.66-.82-1.55-1.23-3.32-1.23-5.32v-.78c0-2.08.39-3.93,1.16-5.54.78-1.61,1.87-2.88,3.29-3.8s3.09-1.38,5.02-1.37c1.9,0,3.5.38,4.79,1.13,1.29.75,2.28,1.83,2.95,3.24s1.01,3.12,1.01,5.12v3.08h-12.34l-.04.12c.08.92.31,1.74.69,2.45.38.72.92,1.28,1.62,1.69s1.54.61,2.54.61,2-.13,2.9-.4c.9-.26,1.78-.66,2.63-1.17l1.53,3.49c-.87.7-1.96,1.28-3.27,1.74-1.31.46-2.82.69-4.51.69ZM234.46,387.32h7v-.5c0-.85-.11-1.59-.34-2.2-.23-.61-.59-1.09-1.09-1.43-.5-.34-1.14-.5-1.93-.5s-1.38.2-1.9.59-.92.93-1.21,1.62-.49,1.46-.59,2.33l.06.1Z"/>
        <path class="cls-1" d="M268.12,400.28c-1.56,0-3.02-.15-4.38-.45-1.35-.3-2.65-.72-3.89-1.28l-.06-5.94h3.94l.76,3.03c.44.22.92.39,1.45.52.52.13,1.12.19,1.79.19,1.27,0,2.16-.21,2.68-.62s.78-.93.78-1.55c0-.58-.28-1.1-.83-1.54s-1.65-.84-3.29-1.17c-2.48-.52-4.31-1.32-5.49-2.41-1.18-1.09-1.77-2.48-1.77-4.17,0-1.16.29-2.22.88-3.18.59-.96,1.49-1.73,2.7-2.31,1.21-.58,2.76-.87,4.65-.87,1.58,0,3.02.15,4.34.46,1.31.3,2.42.7,3.31,1.19l.06,5.74h-3.92l-.6-2.75c-.35-.26-.76-.45-1.23-.58-.47-.13-1.01-.19-1.6-.19-1,0-1.76.2-2.29.6-.53.4-.79.92-.79,1.55,0,.36.09.7.28,1.01s.56.6,1.12.87c.56.27,1.36.53,2.43.78,2.6.6,4.49,1.39,5.68,2.38,1.19.99,1.79,2.38,1.79,4.16,0,1.95-.71,3.53-2.12,4.73-1.42,1.2-3.53,1.8-6.35,1.8Z"/>
        <path class="cls-1" d="M289.23,400.28c-2,0-3.76-.44-5.26-1.33-1.5-.89-2.66-2.1-3.48-3.66-.82-1.55-1.23-3.32-1.23-5.32v-.78c0-2.08.39-3.93,1.16-5.54.78-1.61,1.87-2.88,3.29-3.8s3.09-1.38,5.02-1.37c1.9,0,3.5.38,4.79,1.13,1.29.75,2.28,1.83,2.95,3.24s1.01,3.12,1.01,5.12v3.08h-12.34l-.04.12c.08.92.31,1.74.69,2.45.38.72.92,1.28,1.62,1.69s1.54.61,2.54.61,2-.13,2.9-.4c.9-.26,1.78-.66,2.63-1.17l1.53,3.49c-.87.7-1.96,1.28-3.27,1.74-1.31.46-2.82.69-4.51.69ZM285.17,387.32h7v-.5c0-.85-.11-1.59-.34-2.2-.23-.61-.59-1.09-1.09-1.43-.5-.34-1.14-.5-1.93-.5s-1.38.2-1.9.59-.92.93-1.21,1.62-.49,1.46-.59,2.33l.06.1Z"/>
        <path class="cls-1" d="M300.52,399.88v-3.4l2.72-.58v-13.02l-3.01-.58v-3.42h8.28l.21,2.6.04.47c.52-1.14,1.16-2,1.92-2.58.76-.58,1.67-.87,2.74-.87.34,0,.71.03,1.11.09.4.06.76.13,1.07.22l-.6,5.22-2.81-.16c-.8-.04-1.45.1-1.95.41s-.94.76-1.33,1.34v10.28l2.72.58v3.4h-11.1Z"/>
        <path class="cls-1" d="M325.45,399.88l-6.34-17.23-2.27-.35v-3.42h10.19v3.4l-2.21.39,3.16,9.53.49,1.63h.12l.54-1.63,3.47-9.51-2.58-.41v-3.4h10.17v3.42l-2.33.39-6.64,17.19h-5.76Z"/>
        <path class="cls-1" d="M341.65,399.88v-3.4l2.74-.58v-13.02l-3.03-.58v-3.42h8.69v17.02l2.72.58v3.4h-11.12ZM344.2,374.44v-4.83h5.86v4.83h-5.86Z"/>
        <path class="cls-1" d="M364.53,400.28c-2.02,0-3.76-.45-5.23-1.36-1.47-.91-2.6-2.16-3.39-3.75s-1.18-3.42-1.18-5.48v-.58c0-2.07.4-3.9,1.2-5.49.8-1.59,1.93-2.84,3.4-3.75s3.18-1.37,5.16-1.37,3.51.29,4.88.88c1.36.59,2.47,1.27,3.33,2.05l-.04,6.02h-4.27l-.76-3.75c-.31-.31-.71-.56-1.18-.76s-.96-.29-1.46-.29c-1.03,0-1.89.26-2.57.78-.68.52-1.19,1.25-1.52,2.21s-.5,2.11-.5,3.47v.58c0,1.44.19,2.62.56,3.54.38.92.88,1.61,1.5,2.05.63.44,1.33.66,2.1.66,1,0,1.79-.26,2.4-.79.6-.52,1.02-1.26,1.25-2.22h4.83l.06.12c-.22,1.49-.66,2.78-1.31,3.86-.65,1.09-1.57,1.92-2.75,2.5s-2.69.87-4.51.87Z"/>
        <path class="cls-1" d="M375.47,399.88v-3.4l2.74-.58v-13.02l-3.03-.58v-3.42h8.69v17.02l2.72.58v3.4h-11.12ZM378.01,374.44v-4.83h5.86v4.83h-5.86Z"/>
        <path class="cls-1" d="M398.48,400.28c-2.07,0-3.85-.45-5.34-1.36-1.49-.91-2.63-2.16-3.42-3.77s-1.18-3.46-1.18-5.56v-.41c0-2.08.39-3.93,1.18-5.54s1.92-2.87,3.41-3.78c1.48-.91,3.25-1.37,5.31-1.37s3.86.46,5.34,1.37,2.61,2.17,3.4,3.77c.79,1.6,1.18,3.45,1.18,5.55v.41c0,2.1-.39,3.95-1.18,5.56-.79,1.61-1.92,2.87-3.4,3.77-1.47.91-3.24,1.36-5.3,1.36ZM398.48,395.94c.98,0,1.78-.27,2.41-.8s1.08-1.27,1.38-2.22c.3-.95.45-2.06.45-3.33v-.41c0-1.24-.15-2.34-.45-3.29-.3-.95-.76-1.69-1.39-2.23-.63-.54-1.44-.8-2.43-.8s-1.77.27-2.41.8c-.63.54-1.1,1.28-1.39,2.23-.29.95-.44,2.05-.44,3.29v.41c0,1.27.15,2.38.44,3.34.29.96.75,1.7,1.39,2.22.63.52,1.45.79,2.45.79Z"/>
        <path class="cls-1" d="M419.88,400.28c-1.56,0-3.02-.15-4.38-.45-1.35-.3-2.65-.72-3.89-1.28l-.06-5.94h3.94l.76,3.03c.44.22.92.39,1.45.52.52.13,1.12.19,1.79.19,1.27,0,2.16-.21,2.68-.62s.78-.93.78-1.55c0-.58-.28-1.1-.83-1.54s-1.65-.84-3.29-1.17c-2.48-.52-4.31-1.32-5.49-2.41-1.18-1.09-1.77-2.48-1.77-4.17,0-1.16.29-2.22.88-3.18.59-.96,1.49-1.73,2.7-2.31,1.21-.58,2.76-.87,4.65-.87,1.58,0,3.02.15,4.34.46,1.31.3,2.42.7,3.31,1.19l.06,5.74h-3.92l-.6-2.75c-.35-.26-.76-.45-1.23-.58-.47-.13-1.01-.19-1.6-.19-1,0-1.76.2-2.29.6-.53.4-.79.92-.79,1.55,0,.36.09.7.28,1.01s.56.6,1.12.87c.56.27,1.36.53,2.43.78,2.6.6,4.49,1.39,5.68,2.38,1.19.99,1.79,2.38,1.79,4.16,0,1.95-.71,3.53-2.12,4.73-1.42,1.2-3.53,1.8-6.35,1.8Z"/>
        <path class="cls-1" d="M448.93,400.28c-1.95,0-3.46-.54-4.51-1.61-1.05-1.07-1.58-2.77-1.58-5.1v-10.71h-2.89v-3.98h2.89v-5.14h5.65v5.14h3.86v3.98h-3.86v10.69c0,.81.17,1.4.51,1.75.34.35.81.52,1.41.52.31,0,.65-.02,1.01-.07.36-.04.67-.09.93-.15l.49,4.09c-.58.17-1.21.31-1.89.42-.68.11-1.35.17-2.01.17Z"/>
        <path class="cls-1" d="M465,400.28c-2,0-3.76-.44-5.26-1.33-1.5-.89-2.66-2.1-3.48-3.66-.82-1.55-1.23-3.32-1.23-5.32v-.78c0-2.08.39-3.93,1.16-5.54.78-1.61,1.87-2.88,3.29-3.8s3.09-1.38,5.02-1.37c1.9,0,3.5.38,4.79,1.13,1.29.75,2.28,1.83,2.95,3.24s1.01,3.12,1.01,5.12v3.08h-12.34l-.04.12c.08.92.31,1.74.69,2.45.38.72.92,1.28,1.62,1.69s1.54.61,2.54.61,2-.13,2.9-.4c.9-.26,1.78-.66,2.63-1.17l1.53,3.49c-.87.7-1.96,1.28-3.27,1.74-1.31.46-2.82.69-4.51.69ZM460.94,387.32h7v-.5c0-.85-.11-1.59-.34-2.2-.23-.61-.59-1.09-1.09-1.43-.5-.34-1.14-.5-1.93-.5s-1.38.2-1.9.59-.92.93-1.21,1.62-.49,1.46-.59,2.33l.06.1ZM461,374.91l3.86-5.3h6l.04.12-5.35,5.18h-4.54Z"/>
        <path class="cls-1" d="M485.74,400.28c-2.02,0-3.76-.45-5.23-1.36-1.47-.91-2.6-2.16-3.39-3.75s-1.18-3.42-1.18-5.48v-.58c0-2.07.4-3.9,1.2-5.49.8-1.59,1.93-2.84,3.4-3.75s3.18-1.37,5.16-1.37,3.51.29,4.88.88c1.36.59,2.47,1.27,3.33,2.05l-.04,6.02h-4.27l-.76-3.75c-.31-.31-.71-.56-1.18-.76s-.96-.29-1.46-.29c-1.03,0-1.89.26-2.57.78-.68.52-1.19,1.25-1.52,2.21s-.5,2.11-.5,3.47v.58c0,1.44.19,2.62.56,3.54.38.92.88,1.61,1.5,2.05.63.44,1.33.66,2.1.66,1,0,1.79-.26,2.4-.79.6-.52,1.02-1.26,1.25-2.22h4.83l.06.12c-.22,1.49-.66,2.78-1.31,3.86-.65,1.09-1.57,1.92-2.75,2.5s-2.69.87-4.51.87Z"/>
        <path class="cls-1" d="M496.64,399.88v-3.4l2.72-.58v-13.02l-3.01-.58v-3.42h8.29l.25,3.01c.7-1.07,1.56-1.91,2.59-2.5,1.03-.59,2.2-.89,3.52-.89,2.08,0,3.71.67,4.89,2s1.77,3.42,1.77,6.27v9.14l2.72.58v3.4h-10.83v-3.4l2.43-.58v-9.12c0-1.41-.28-2.41-.83-3-.56-.59-1.38-.88-2.48-.88-.81,0-1.52.17-2.12.51s-1.1.83-1.5,1.46v11.02l2.29.58v3.4h-10.67Z"/>
        <path class="cls-1" d="M522.04,399.88v-3.4l2.74-.58v-13.02l-3.03-.58v-3.42h8.69v17.02l2.72.58v3.4h-11.12ZM524.58,374.44v-4.83h5.86v4.83h-5.86Z"/>
        <path class="cls-1" d="M544.92,400.28c-2.02,0-3.76-.45-5.23-1.36-1.47-.91-2.6-2.16-3.39-3.75s-1.18-3.42-1.18-5.48v-.58c0-2.07.4-3.9,1.2-5.49.8-1.59,1.93-2.84,3.4-3.75s3.18-1.37,5.16-1.37,3.51.29,4.88.88c1.36.59,2.47,1.27,3.33,2.05l-.04,6.02h-4.27l-.76-3.75c-.31-.31-.71-.56-1.18-.76s-.96-.29-1.46-.29c-1.03,0-1.89.26-2.57.78-.68.52-1.19,1.25-1.52,2.21s-.5,2.11-.5,3.47v.58c0,1.44.19,2.62.56,3.54.38.92.88,1.61,1.5,2.05.63.44,1.33.66,2.1.66,1,0,1.79-.26,2.4-.79.6-.52,1.02-1.26,1.25-2.22h4.83l.06.12c-.22,1.49-.66,2.78-1.31,3.86-.65,1.09-1.57,1.92-2.75,2.5s-2.69.87-4.51.87Z"/>
        <path class="cls-1" d="M566.04,400.28c-2.07,0-3.85-.45-5.34-1.36-1.49-.91-2.63-2.16-3.42-3.77s-1.18-3.46-1.18-5.56v-.41c0-2.08.39-3.93,1.18-5.54s1.92-2.87,3.41-3.78c1.48-.91,3.25-1.37,5.31-1.37s3.86.46,5.34,1.37,2.61,2.17,3.4,3.77c.79,1.6,1.18,3.45,1.18,5.55v.41c0,2.1-.39,3.95-1.18,5.56-.79,1.61-1.92,2.87-3.4,3.77-1.47.91-3.24,1.36-5.3,1.36ZM566.04,395.94c.98,0,1.78-.27,2.41-.8s1.08-1.27,1.38-2.22c.3-.95.45-2.06.45-3.33v-.41c0-1.24-.15-2.34-.45-3.29-.3-.95-.76-1.69-1.39-2.23-.63-.54-1.44-.8-2.43-.8s-1.77.27-2.41.8c-.63.54-1.1,1.28-1.39,2.23-.29.95-.44,2.05-.44,3.29v.41c0,1.27.15,2.38.44,3.34.29.96.75,1.7,1.39,2.22.63.52,1.45.79,2.45.79Z"/>
        <path class="cls-1" d="M587.44,400.28c-1.56,0-3.02-.15-4.38-.45-1.35-.3-2.65-.72-3.89-1.28l-.06-5.94h3.94l.76,3.03c.44.22.92.39,1.45.52.52.13,1.12.19,1.79.19,1.27,0,2.16-.21,2.68-.62s.78-.93.78-1.55c0-.58-.28-1.1-.83-1.54s-1.65-.84-3.29-1.17c-2.48-.52-4.31-1.32-5.49-2.41-1.18-1.09-1.77-2.48-1.77-4.17,0-1.16.29-2.22.88-3.18.59-.96,1.49-1.73,2.7-2.31,1.21-.58,2.76-.87,4.65-.87,1.58,0,3.02.15,4.34.46,1.31.3,2.42.7,3.31,1.19l.06,5.74h-3.92l-.6-2.75c-.35-.26-.76-.45-1.23-.58-.47-.13-1.01-.19-1.6-.19-1,0-1.76.2-2.29.6-.53.4-.79.92-.79,1.55,0,.36.09.7.28,1.01s.56.6,1.12.87c.56.27,1.36.53,2.43.78,2.6.6,4.49,1.39,5.68,2.38,1.19.99,1.79,2.38,1.79,4.16,0,1.95-.71,3.53-2.12,4.73-1.42,1.2-3.53,1.8-6.35,1.8Z"/>
      </g>
    </g>
  </g>
</svg>