<?xml version="1.0" encoding="UTF-8"?>
<svg id="Capa_2" xmlns="http://www.w3.org/2000/svg" version="1.1" viewBox="0 0 426.3 232">
  <!-- Generator: Adobe Illustrator 30.0.0, SVG Export Plug-In . SVG Version: 2.1.1 Build 123)  -->
  <defs>
    <style>
      .st0 {
        fill: #fff;
      }
    </style>
  </defs>
  <g id="Capa_1-2">
    <g>
      <g>
        <path class="st0" d="M60.7,204.2c1.1,0,1.9-.9,1.9-1.9v-10.3c0-1.1-.9-1.9-1.9-1.9s-1.9.9-1.9,1.9v10.3c0,1.1.9,1.9,1.9,1.9Z"/>
        <path class="st0" d="M60.7,169.3c-1.1,0-1.9.9-1.9,1.9v4.1c0,1.1.9,1.9,1.9,1.9s1.9-.9,1.9-1.9v-4.1c0-1.1-.9-1.9-1.9-1.9Z"/>
        <path class="st0" d="M0,150.1v81.9h100.8v-81.9S0,150.1,0,150.1ZM70.9,216.7c0,3.3-2.7,6.1-6.1,6.1h-.1v2.2c0,1.1-.9,1.9-1.9,1.9s-1.9-.9-1.9-1.9v-2.2h-20.9v2.2c0,1.1-.9,1.9-1.9,1.9s-1.9-.9-1.9-1.9v-2.2h-.1c-3.3,0-6.1-2.7-6.1-6.1v-31.1h41.1v31.1h0ZM70.9,181.7H29.9v-14.6c0-3.3,2.7-6.1,6.1-6.1h28.9c3.3,0,6.1,2.7,6.1,6.1v14.6h0Z"/>
      </g>
      <g>
        <path class="st0" d="M147.1,167h-3.9c-2.4,0-2.4,3.7,0,3.7h3.9c2.4,0,2.4-3.7,0-3.7Z"/>
        <path class="st0" d="M159,212.4c7.7,0,13.9-6.2,13.9-13.9s-6.2-13.9-13.9-13.9-13.9,6.2-13.9,13.9,6.2,13.9,13.9,13.9ZM149.5,193.9c10.6.4,7.9,8.4,20,6.2-.7,5.2-5.1,9.3-10.5,9.3-7.8.2-13.2-8.7-9.5-15.5h0Z"/>
        <path class="st0" d="M157,167h-3.9c-2.4,0-2.4,3.7,0,3.6h3.9c2.4,0,2.4-3.7,0-3.6Z"/>
        <path class="st0" d="M108.5,150.1v81.9h100.8v-81.9h-100.8ZM184.5,213.2c0,5.4-4.4,9.7-9.7,9.7h-31.5c-5.4,0-9.7-4.4-9.7-9.7v-34.6h51v34.6h0ZM182.6,176.6h-47.3c-1,0-1.8-.8-1.8-1.8-.9-6.5,2.4-13.7,9.7-13.7h31.5c5.4,0,9.7,4.4,9.7,9.7-.2,1.6.9,5.9-1.8,5.8Z"/>
      </g>
      <g>
        <path class="st0" d="M407.5,185.6c-2.5,0-4.5,2-4.5,4.4s2,4.4,4.5,4.4,4.5-2,4.5-4.4-2-4.4-4.5-4.4ZM407.5,192c-1.1,0-1.9-.9-1.9-1.9s.9-1.9,1.9-1.9,1.9.9,1.9,1.9-.9,1.9-1.9,1.9Z"/>
        <path class="st0" d="M325.5,150.1v81.9h100.8v-81.9h-100.8ZM409,207.5h-66.2v-1.7c0-1.9,1.5-3.4,3.4-3.4h59.4c1.9,0,3.4,1.5,3.4,3.4v1.7ZM418.6,202.6c0,2.7-2.2,4.9-4.9,4.9h-2.3v-1.7c0-3.2-2.6-5.9-5.9-5.9h-59.4c-3.2,0-5.9,2.6-5.9,5.9v1.7h-2.3c-2.7,0-4.9-2.2-4.9-4.9v-19c0-2.7,2.2-4.9,4.9-4.9h75.7c2.7,0,4.9,2.2,4.9,4.9v19Z"/>
      </g>
      <g>
        <path class="st0" d="M217,150.1v81.9h100.8v-81.9h-100.8ZM244,170.8h15l-2,4.1h-13v-4.1h0ZM255.6,222.9h-7.7l-.5-5.2h8.8l-.5,5.2h0ZM286.4,222.9h-7.7l-.5-5.2h8.8l-.5,5.2h0ZM290.3,214.1h-46.3v-35.6h15.2l3.9-7.7h27.2v43.3h0ZM244,167.1c0-3.3,2.6-5.9,5.9-5.9h34.5c3.3,0,5.9,2.6,5.9,5.9h-46.3,0Z"/>
        <path class="st0" d="M265.3,191.7v2.5h-2.5c-.8-2.2-2.9-3.9-5.4-3.9v3.6c1.1,0,2,.9,2,2.1s-.9,2.1-2,2.1v3.6c2.5,0,4.6-1.6,5.4-3.9h2.5v2.5c-2.2.8-3.9,2.9-3.9,5.4h3.6c0-1.1.9-2.1,2-2.1s2,.9,2,2.1h3.6c0-2.5-1.6-4.6-3.9-5.4v-2.5h2.5c.8,2.2,2.9,3.9,5.4,3.9v-3.6c-1.1,0-2-.9-2-2.1s.9-2.1,2-2.1v-3.6c-2.5,0-4.6,1.6-5.4,3.9h-2.5v-2.5c2.2-.8,3.9-2.9,3.9-5.4h-3.6c0,1.1-.9,2.1-2,2.1s-2-.9-2-2.1h-3.6c0,2.5,1.6,4.6,3.9,5.4Z"/>
      </g>
      <path class="st0" d="M213.2,0l-102.8,102.8v35.5c0,.6,26.9,0,26.9,0v-24.8l75.9-75.9,75.9,75.9v24.8s26.9.6,26.9,0v-35.5L213.2,0Z"/>
      <polygon class="st0" points="114.8 86.5 133.6 67.7 102.4 36.5 102.4 36.2 102.3 36.3 102.1 36.2 102.1 36.5 0 138.6 37.6 138.6 102.3 74 114.8 86.5"/>
      <polygon class="st0" points="311.5 86.5 292.8 67.7 323.9 36.5 323.9 36.2 324.1 36.3 324.2 36.2 324.2 36.5 426.3 138.6 388.7 138.6 324.1 74 311.5 86.5"/>
      <rect class="st0" x="193.7" y="89.2" width="17" height="17"/>
      <rect class="st0" x="215.7" y="89.2" width="17" height="17"/>
      <rect class="st0" x="193.7" y="110.6" width="17" height="17"/>
      <rect class="st0" x="215.7" y="110.6" width="17" height="17"/>
      <polygon class="st0" points="145.3 115.4 213.2 47.5 280.9 115.3 212.7 58.8 145.3 115.4"/>
      <polygon class="st0" points="106 95.1 111.7 89.5 103.7 81.5 46.5 138.6 103.2 92.8 106 95.1"/>
      <polygon class="st0" points="321.7 95.1 316 89.5 324 81.5 381.2 138.6 324.5 92.8 321.7 95.1"/>
    </g>
  </g>
</svg>